HIERARCHY
ROOT Hips
{
	OFFSET 0.000000 89.005402 0.000000
	CHANNELS 6 Xposition Yposition Zposition Xrotation Yrotation Zrotation
	JOINT Spine
	{
		OFFSET 0.116900 10.681000 0.373400
		CHANNELS 3 Xrotation Yrotation Zrotation
		JOINT Spine1
		{
			OFFSET 0.000000 13.840401 0.053500
			CHANNELS 3 Xrotation Yrotation Zrotation
			JOINT Spine2
			{
				OFFSET 0.000000 14.712700 -0.366200
				CHANNELS 3 Xrotation Yrotation Zrotation
				JOINT Neck
				{
					OFFSET 0.000000 35.415497 -3.314200
					CHANNELS 3 Xrotation Yrotation Zrotation
					JOINT Head
					{
						OFFSET 0.000000 16.899200 1.218300
						CHANNELS 3 Xrotation Yrotation Zrotation
						JOINT HeadTop_End
						{
							OFFSET 0.000000 22.206207 2.192500
							CHANNELS 3 Xrotation Yrotation Zrotation
							End Site
							{
								OFFSET 0.000000 22.314178 0.000000
							}
						}
					}
				}
				JOINT LeftShoulder
				{
					OFFSET 12.896400 26.716293 -4.548400
					CHANNELS 3 Xrotation Yrotation Zrotation
					JOINT LeftArm
					{
						OFFSET 19.027000 -4.857010 -1.718400
						CHANNELS 3 Xrotation Yrotation Zrotation
						JOINT LeftForeArm
						{
							OFFSET 24.179897 0.000000 0.000000
							CHANNELS 3 Xrotation Yrotation Zrotation
							JOINT LeftHand
							{
								OFFSET 27.156403 0.000000 0.000000
								CHANNELS 3 Xrotation Yrotation Zrotation
								JOINT LeftHandIndex1
								{
									OFFSET 16.441200 0.000000 0.000000
									CHANNELS 3 Xrotation Yrotation Zrotation
									JOINT LeftHandIndex2
									{
										OFFSET 4.821899 0.000000 0.000000
										CHANNELS 3 Xrotation Yrotation Zrotation
										JOINT LeftHandIndex3
										{
											OFFSET 6.386497 0.000000 0.000000
											CHANNELS 3 Xrotation Yrotation Zrotation
											JOINT LeftHandIndex4
											{
												OFFSET 5.188988 0.000000 0.000000
												CHANNELS 3 Xrotation Yrotation Zrotation
												End Site
												{
													OFFSET -0.178703 5.185913 0.000177
												}
											}
										}
									}
								}
								JOINT LeftHandThumb1
								{
									OFFSET 6.534897 -5.032593 5.900300
									CHANNELS 3 Xrotation Yrotation Zrotation
									JOINT LeftHandThumb2
									{
										OFFSET 3.818176 -2.204422 2.204423
										CHANNELS 3 Xrotation Yrotation Zrotation
										JOINT LeftHandThumb3
										{
											OFFSET 3.252098 -1.877594 1.877601
											CHANNELS 3 Xrotation Yrotation Zrotation
											JOINT LeftHandThumb4
											{
												OFFSET 5.251778 -3.032120 3.032117
												CHANNELS 3 Xrotation Yrotation Zrotation
												End Site
												{
													OFFSET 0.000023 6.780014 0.000000
												}
											}
										}
									}
								}
							}
						}
					}
				}
				JOINT RightShoulder
				{
					OFFSET -12.896300 26.716293 -4.548400
					CHANNELS 3 Xrotation Yrotation Zrotation
					JOINT RightArm
					{
						OFFSET -19.027000 -4.857010 -1.718400
						CHANNELS 3 Xrotation Yrotation Zrotation
						JOINT RightForeArm
						{
							OFFSET -24.179897 0.000000 0.000000
							CHANNELS 3 Xrotation Yrotation Zrotation
							JOINT RightHand
							{
								OFFSET -27.156403 0.000000 0.000000
								CHANNELS 3 Xrotation Yrotation Zrotation
								JOINT RightHandThumb1
								{
									OFFSET -6.591202 -4.852203 5.988100
									CHANNELS 3 Xrotation Yrotation Zrotation
									JOINT RightHandThumb2
									{
										OFFSET -3.818176 -2.204422 2.204423
										CHANNELS 3 Xrotation Yrotation Zrotation
										JOINT RightHandThumb3
										{
											OFFSET -3.252098 -1.877594 1.877601
											CHANNELS 3 Xrotation Yrotation Zrotation
											JOINT RightHandThumb4
											{
												OFFSET -5.251778 -3.032120 3.032117
												CHANNELS 3 Xrotation Yrotation Zrotation
												End Site
												{
													OFFSET -0.000023 6.780014 0.000000
												}
											}
										}
									}
								}
								JOINT RightHandIndex1
								{
									OFFSET -16.029404 0.000000 0.000000
									CHANNELS 3 Xrotation Yrotation Zrotation
									JOINT RightHandIndex2
									{
										OFFSET -5.213303 0.000000 0.000000
										CHANNELS 3 Xrotation Yrotation Zrotation
										JOINT RightHandIndex3
										{
											OFFSET -6.386528 0.000000 0.000000
											CHANNELS 3 Xrotation Yrotation Zrotation
											JOINT RightHandIndex4
											{
												OFFSET -5.189026 0.000000 0.000000
												CHANNELS 3 Xrotation Yrotation Zrotation
												End Site
												{
													OFFSET 0.236702 5.183624 0.001972
												}
											}
										}
									}
								}
							}
						}
					}
				}
			}
		}
	}
	JOINT LeftUpLeg
	{
		OFFSET 14.073000 -7.904099 -1.463000
		CHANNELS 3 Xrotation Yrotation Zrotation
		JOINT LeftLeg
		{
			OFFSET -0.109806 -34.073280 4.093200
			CHANNELS 3 Xrotation Yrotation Zrotation
			JOINT LeftFoot
			{
				OFFSET 0.109806 -29.899420 -6.319000
				CHANNELS 3 Xrotation Yrotation Zrotation
				JOINT LeftToeBase
				{
					OFFSET 1.551100 -14.988700 20.535801
					CHANNELS 3 Xrotation Yrotation Zrotation
					JOINT LeftToe_End
					{
						OFFSET 0.221200 0.570800 13.248301
						CHANNELS 3 Xrotation Yrotation Zrotation
						End Site
						{
							OFFSET 0.000000 13.262435 0.000000
						}
					}
				}
			}
		}
	}
	JOINT RightUpLeg
	{
		OFFSET -13.839300 -7.904099 -1.463000
		CHANNELS 3 Xrotation Yrotation Zrotation
		JOINT RightLeg
		{
			OFFSET 0.109694 -34.073219 4.093300
			CHANNELS 3 Xrotation Yrotation Zrotation
			JOINT RightFoot
			{
				OFFSET -0.109694 -29.899384 -6.319200
				CHANNELS 3 Xrotation Yrotation Zrotation
				JOINT RightToeBase
				{
					OFFSET -1.551100 -14.988700 20.535801
					CHANNELS 3 Xrotation Yrotation Zrotation
					JOINT RightToe_End
					{
						OFFSET -0.221200 0.570900 13.248299
						CHANNELS 3 Xrotation Yrotation Zrotation
						End Site
						{
							OFFSET 0.000000 13.262440 0.000000
						}
					}
				}
			}
		}
	}
}
MOTION
Frames: 4
Frame Time: 0.033333
-93.672523 84.097031 96.619949 48.287740 -56.529661 127.461411 2.995052 4.085064 -3.440054 5.876834 6.634783 -7.576431 5.834281 6.695483 -7.558221 2.935339 4.169772 -10.333157 15.199782 9.759068 -27.225308 -0.000000 -0.000001 0.000003 0.976432 -1.486498 -32.016522 -8.889409 29.085623 -27.325277 -0.000001 -0.006289 -0.000000 51.320614 -4.485956 -8.379130 0.438715 3.630479 -27.315354 0.264556 1.742294 -17.267265 0.284954 1.806530 -17.925666 0.000000 0.000001 0.000002 -2.901327 -11.022021 -0.682808 7.814702 28.202109 3.049892 -5.990738 9.012008 15.856260 0.000001 0.000000 0.000004 -1.305393 22.504334 20.812467 -76.275823 106.868480 111.379540 -0.000021 59.052197 0.000010 48.910288 20.024501 -15.221741 -18.345210 24.276294 5.678282 9.394427 -40.989297 -5.254790 -6.804337 1.256433 -14.639587 -0.000000 -0.000000 0.000000 0.503142 -4.795956 12.818196 0.133287 -1.107330 13.725678 0.133196 -1.107050 13.722306 0.000003 0.000001 -0.000003 -39.083562 6.514492 56.504478 31.986223 -9.449078 2.314507 40.795603 21.881505 -16.407165 7.491497 0.000033 -0.000016 0.000001 -0.000002 -0.000003 -79.885196 22.745392 -55.941992 47.510311 6.007568 -4.275719 -26.764062 -18.647011 -5.689193 -2.178216 0.000008 -0.000001 0.000000 -0.000000 0.000000 
-93.882957 84.584641 98.568100 52.471279 -57.083900 131.907878 3.584152 3.707182 -2.675230 7.139660 6.510543 -7.209886 7.094418 6.578562 -7.196607 3.951072 4.084044 -10.945551 15.687601 9.226345 -26.816175 -0.000000 0.000000 -0.000005 0.987332 -1.219207 -29.843467 -4.271453 33.468678 -33.012674 -0.000002 -0.000004 0.000001 47.383187 -3.557417 -18.822623 0.507530 3.916481 -34.751548 0.457693 2.271981 -22.777438 0.485117 2.336136 -23.459372 -0.000001 0.000001 0.000000 -1.855574 -12.389136 -2.574828 8.350688 33.036771 3.503051 -5.648459 11.907064 16.642147 -0.000000 0.000000 0.000000 -1.431029 22.567792 21.493644 -93.924540 107.298529 132.574081 0.000089 57.128392 -0.000077 46.244779 21.968518 -18.854570 -18.709481 24.828557 6.052116 9.505355 -41.976884 -5.343238 -6.855806 1.524816 -14.622245 -0.000002 0.000001 0.000000 0.530239 -4.868876 13.184981 0.143140 -1.146960 14.227214 0.142925 -1.146078 14.216166 0.000001 -0.000001 -0.000000 -35.474602 7.419759 57.955405 44.634764 -7.393577 0.592394 38.668576 20.563277 -24.380242 5.490223 -0.000004 -0.000018 0.000001 0.000000 -0.000002 -79.208891 24.447475 -56.397975 45.842911 7.020096 -4.149547 -23.986528 -18.432420 -4.003556 -2.108712 -0.000012 0.000004 -0.000000 0.000002 0.000000 
-93.718918 84.758591 100.094704 57.719422 -57.746012 137.127536 4.016304 3.111345 -1.800774 8.061891 6.016105 -6.664223 8.013999 6.089076 -6.658091 5.112776 3.999752 -11.676038 16.148601 8.625099 -26.210844 -0.000002 0.000001 -0.000000 1.070656 -0.560312 -28.536580 -1.774155 36.554746 -35.570205 0.000000 -0.020811 0.000003 46.144717 0.338329 -25.807906 0.547846 4.127742 -40.091820 0.635998 2.656620 -26.922524 0.656821 2.697178 -27.368281 0.000000 0.000006 0.000000 -1.348022 -13.176474 -4.265784 8.738625 36.571404 3.813510 -5.435210 13.868087 17.171517 0.000005 0.000002 0.000001 -1.735626 23.158200 22.845424 -106.780363 112.784031 145.046280 0.000011 54.449749 -0.000013 43.840594 23.764699 -21.554301 -18.625752 24.981711 6.022103 9.534744 -42.244187 -5.359121 -6.871633 1.619695 -14.603487 -0.000002 0.000000 0.000001 0.533816 -4.875444 13.257229 0.145656 -1.156796 14.351935 0.145188 -1.155006 14.329163 0.000001 -0.000002 -0.000000 -32.121751 8.164838 56.505964 59.381801 -4.815930 -1.588767 36.186755 21.229565 -20.848784 2.851014 0.000004 0.000002 0.000000 0.000001 -0.000000 -78.727868 26.059769 -55.839573 44.994213 7.817145 -4.126617 -21.822302 -17.911553 -2.858789 -2.047147 0.000017 -0.000002 -0.000000 0.000004 0.000000 
-93.370087 84.677643 101.251213 63.895880 -58.364656 142.853543 4.133994 2.517829 -1.051578 8.277896 5.322721 -6.111855 8.233330 5.398438 -6.107939 6.125696 3.733605 -11.899375 15.998779 7.886689 -25.380565 -0.000000 0.000003 0.000002 1.182783 0.281244 -27.730069 -2.403225 37.350661 -34.558438 0.000003 -0.023966 -0.000000 50.963631 3.921306 -26.678816 0.563780 4.220140 -42.376703 0.738153 2.848594 -29.049081 0.730611 2.835005 -28.897048 0.000000 -0.000005 0.000000 -1.630050 -13.050769 -5.692277 8.919645 38.205196 3.947744 -5.374158 14.457395 17.338022 -0.000001 0.000001 0.000003 -2.170030 23.598838 24.921197 -110.649618 120.015576 146.563511 0.000030 52.610888 -0.000022 41.818404 24.103618 -25.385440 -18.230543 24.871545 5.714899 9.509654 -42.036310 -5.327461 -6.863844 1.601842 -14.582939 0.000003 0.000002 -0.000001 0.521337 -4.837310 13.133060 0.143146 -1.146957 14.227252 0.142385 -1.143971 14.189319 0.000003 -0.000000 -0.000002 -28.802051 11.040305 53.672115 72.412757 -1.399564 -4.250482 33.141738 22.627186 -13.338746 2.306918 0.000022 0.000018 0.000001 -0.000001 -0.000000 -78.255212 27.413751 -54.476885 45.009017 8.447183 -4.185604 -20.416462 -17.254818 -2.193238 -1.984202 0.000001 -0.000004 -0.000000 -0.000003 -0.000000 
